<?xml version="1.0" encoding="UTF-8" standalone="no"?>
<!DOCTYPE svg PUBLIC "-//W3C//DTD SVG 1.1//EN" "http://www.w3.org/Graphics/SVG/1.1/DTD/svg11.dtd">
<svg width="100%" height="100%" viewBox="0 0 64 64" version="1.1" xmlns="http://www.w3.org/2000/svg" xmlns:xlink="http://www.w3.org/1999/xlink" xml:space="preserve" xmlns:serif="http://www.serif.com/" style="fill-rule:evenodd;clip-rule:evenodd;stroke-linejoin:round;stroke-miterlimit:2;">
    <path d="M64,10.24C64,4.588 59.412,0 53.76,0L10.24,0C4.588,0 0,4.588 0,10.24L0,53.76C0,59.412 4.588,64 10.24,64L53.76,64C59.412,64 64,59.412 64,53.76L64,10.24ZM19.422,23.39L19.422,53.133L9.988,53.133L9.988,23.39L19.422,23.39ZM54.012,53.133L44.578,53.133L44.578,37.479C44.578,34.348 43.006,31.217 39.075,31.155L38.949,31.155C35.145,31.155 33.572,34.379 33.572,37.479L33.572,53.133L24.139,53.133L24.139,23.39L33.572,23.39L33.572,27.398C33.572,27.398 36.607,23.39 42.707,23.39C48.949,23.39 54.012,27.664 54.012,36.32L54.012,53.133ZM9.988,14.734C9.988,12.542 11.875,10.867 14.705,10.867C17.535,10.867 19.312,12.542 19.422,14.734C19.422,16.925 17.661,18.694 14.705,18.694C11.875,18.694 9.988,16.925 9.988,14.734Z" style="fill:white;"/>
</svg>
