<?xml version="1.0" encoding="UTF-8" standalone="no"?>
<!DOCTYPE svg PUBLIC "-//W3C//DTD SVG 1.1//EN" "http://www.w3.org/Graphics/SVG/1.1/DTD/svg11.dtd">
<svg width="100%" height="100%" viewBox="0 0 64 64" version="1.1" xmlns="http://www.w3.org/2000/svg" xmlns:xlink="http://www.w3.org/1999/xlink" xml:space="preserve" xmlns:serif="http://www.serif.com/" style="fill-rule:evenodd;clip-rule:evenodd;stroke-linejoin:round;stroke-miterlimit:2;">
    <path d="M64,10.24C64,4.588 59.412,0 53.76,0L10.24,0C4.588,0 0,4.588 0,10.24L0,53.76C0,59.412 4.588,64 10.24,64L53.76,64C59.412,64 64,59.412 64,53.76L64,10.24ZM54.899,53.133L37.207,27.816L51.67,10.867L46.129,10.867L34.701,24.223L25.373,10.867L9.101,10.867L25.757,34.675L9.963,53.133L15.597,53.133L28.281,38.272L38.669,53.133L54.899,53.133Z" style="fill:white;"/>
</svg>
