<?xml version="1.0" encoding="UTF-8" standalone="no"?>
<!DOCTYPE svg PUBLIC "-//W3C//DTD SVG 1.1//EN" "http://www.w3.org/Graphics/SVG/1.1/DTD/svg11.dtd">
<svg width="100%" height="100%" viewBox="0 0 64 64" version="1.1" xmlns="http://www.w3.org/2000/svg" xmlns:xlink="http://www.w3.org/1999/xlink" xml:space="preserve" xmlns:serif="http://www.serif.com/" style="fill-rule:evenodd;clip-rule:evenodd;stroke-linejoin:round;stroke-miterlimit:2;">
    <path d="M64,10.24C64,4.588 59.412,0 53.76,0L10.24,0C4.588,0 0,4.588 0,10.24L0,53.76C0,59.412 4.588,64 10.24,64L53.76,64C59.412,64 64,59.412 64,53.76L64,10.24ZM34.087,64L43.385,64L43.385,41.419L51.355,41.419L52.683,32.12L43.385,32.12L43.385,25.479C43.385,22.946 44.9,20.166 48.698,20.166L54.012,20.166L54.012,12.196C54.012,12.196 51.532,10.867 47.37,10.867C39.4,10.867 34.087,16.181 34.087,25.479L34.087,32.12L26.117,32.12L26.117,41.419L34.087,41.419L34.087,64Z" style="fill:white;"/>
</svg>
